<?xml version="1.0" encoding="UTF-8"?>
<svg version="1.1" xmlns="http://www.w3.org/2000/svg" width="467" height="467">
<path d="M0 0 C10.72886686 1.41289424 21.32116623 3.29964956 31.9453125 5.3359375 C33.64854214 5.66005226 35.35182082 5.98390946 37.05514526 6.30752563 C40.60712254 6.98303006 44.15870018 7.66058268 47.70996094 8.33984375 C52.20068151 9.19878228 56.69207267 10.05414777 61.18371677 10.90824223 C69.63735289 12.51574866 78.0894471 14.13102322 86.53931522 15.75822544 C90.92766692 16.60310226 95.3175405 17.43930651 99.70874023 18.26928711 C101.49472417 18.61262332 103.28062436 18.9563957 105.06640625 19.30078125 C105.81056793 19.43878143 106.55472961 19.57678162 107.32144165 19.71896362 C118.15396929 21.83990354 127.07619262 26.95054693 133.45678711 36.08569336 C134.87777671 38.38443555 136.22903491 40.71193774 137.5625 43.0625 C138.60671123 44.8518176 139.65368995 46.63952241 140.703125 48.42578125 C141.24259766 49.34568848 141.78207031 50.2655957 142.33789062 51.21337891 C145.06610687 55.78738893 147.93647403 60.26797076 150.8125 64.75 C157.64949724 75.42890957 164.37869542 86.1724544 171.08691406 96.93261719 C173.03275976 100.05252599 174.98080775 103.17104814 176.9296875 106.2890625 C177.89720947 107.837146 177.89720947 107.837146 178.88427734 109.41650391 C180.15461128 111.44794447 181.42575044 113.47888175 182.69775391 115.50927734 C185.51835573 120.01397752 188.3275275 124.5241662 191.09375 129.0625 C191.5580542 129.81982422 192.0223584 130.57714844 192.50073242 131.35742188 C193.3506741 132.74567577 194.194963 134.13741281 195.0324707 135.53320312 C195.96803375 137.05639424 196.97634551 138.53455779 198 140 C198.66 140 199.32 140 200 140 C201.67390123 137.48914815 203.22455924 134.97496167 204.75 132.375 C205.74808741 130.70718727 206.74817655 129.04057124 207.75 127.375 C208.27980469 126.49328125 208.80960938 125.6115625 209.35546875 124.703125 C212.08498682 120.21660124 214.91784238 115.79718279 217.75 111.375 C226.94596666 96.98246973 235.99584231 82.4990562 244.96411133 67.96362305 C247.08169764 64.53414883 249.20639371 61.10912561 251.33349609 57.68554688 C252.49522909 55.81343099 253.654197 53.93959763 254.81103516 52.06445312 C256.6561755 49.07860152 258.51423375 46.10113275 260.375 43.125 C260.93388916 42.21540527 261.49277832 41.30581055 262.06860352 40.36865234 C268.73102418 29.77731496 275.52827234 23.6721195 287.81036377 20.20715332 C290.74596366 19.55423179 293.68464291 18.98898425 296.64453125 18.45703125 C298.30121323 18.14167419 298.30121323 18.14167419 299.99136353 17.81994629 C303.59601762 17.13728727 307.20402941 16.47466068 310.8125 15.8125 C313.32777439 15.34060292 315.842827 14.86752233 318.35766602 14.39331055 C324.24477139 13.28649533 330.1341186 12.19252797 336.02484608 11.10521984 C341.96274031 10.00857937 347.89801432 8.89822586 353.83302307 7.78608704 C364.55162266 5.77799317 375.27180199 3.77826464 385.99609375 1.80078125 C386.98606354 1.61696899 387.97603333 1.43315674 388.9960022 1.24377441 C389.89507294 1.07865356 390.79414368 0.91353271 391.72045898 0.7434082 C392.89486794 0.52670219 392.89486794 0.52670219 394.09300232 0.30561829 C396 0 396 0 398 0 C396.66420813 3.59014086 395.05972435 6.73012596 393.03125 9.9765625 C392.17466797 11.35328125 392.17466797 11.35328125 391.30078125 12.7578125 C390.70652344 13.70398438 390.11226563 14.65015625 389.5 15.625 C388.90574219 16.57890625 388.31148438 17.5328125 387.69921875 18.515625 C381.20404171 28.92550242 381.20404171 28.92550242 379.05184937 29.71128845 C378.25018341 29.86964676 377.44851746 30.02800507 376.62255859 30.19116211 C375.70318512 30.37836319 374.78381165 30.56556427 373.83657837 30.75843811 C372.82574188 30.95030197 371.8149054 31.14216583 370.7734375 31.33984375 C369.18237686 31.65622047 369.18237686 31.65622047 367.55917358 31.97898865 C352.62172975 34.91770225 337.63064265 37.60097379 322.64355469 40.27319336 C318.77330154 40.96374963 314.90622386 41.67123638 311.0390625 42.37890625 C309.87541168 42.58318741 308.71176086 42.78746857 307.5128479 42.99794006 C294.9739798 45.01609652 294.9739798 45.01609652 285.14453125 52.265625 C284.33979199 53.57733154 283.56373754 54.90693579 282.8125 56.25 C281.88809906 57.78259927 280.96361507 59.31514845 280.0390625 60.84765625 C279.5534082 61.67539551 279.06775391 62.50313477 278.56738281 63.35595703 C275.70118385 68.19099361 272.67830214 72.928953 269.6875 77.6875 C268.40310913 79.74706123 267.11925749 81.80695883 265.8359375 83.8671875 C261.0531489 91.52884228 256.19625502 99.14271754 251.33984375 106.7578125 C246.68972763 114.05037556 242.07705657 121.36648443 237.46337891 128.68212891 C235.99226927 131.01224484 234.51806673 133.34037593 233.04296875 135.66796875 C227.32962478 144.68775461 221.66984915 153.73843623 216.06005859 162.82299805 C211.34369601 170.45732279 206.58445216 178.06434148 201.81958008 185.66845703 C198.41135605 191.11581574 195.02482408 196.5755786 191.66796875 202.0546875 C191.30807358 202.64169937 190.94817841 203.22871124 190.57737732 203.83351135 C188.83667175 206.6735634 187.09907266 209.51540444 185.3659668 212.36010742 C184.73730713 213.38724854 184.10864746 214.41438965 183.4609375 215.47265625 C182.57680176 216.91922607 182.57680176 216.91922607 181.67480469 218.39501953 C180.21155385 220.6709505 178.65749519 222.75575623 176.9765625 224.87109375 C174.7617669 227.79955725 174.7617669 227.79955725 174.8828125 230.94921875 C176.36113881 234.98618676 178.46152879 238.27227617 180.875 241.8125 C181.86862575 243.30980548 182.86211096 244.80720423 183.85546875 246.3046875 C184.37028809 247.07264648 184.88510742 247.84060547 185.41552734 248.63183594 C188.03565355 252.54789514 190.61397655 256.49072409 193.1875 260.4375 C193.66880371 261.16493408 194.15010742 261.89236816 194.64599609 262.6418457 C198 267.77348395 198 267.77348395 198 270 C198.66 270 199.32 270 200 270 C200.41620605 268.89579712 200.41620605 268.89579712 200.84082031 267.76928711 C201.90665039 265.22301276 203.08917274 263.02863812 204.546875 260.69140625 C205.05484619 259.87333496 205.56281738 259.05526367 206.08618164 258.21240234 C206.6352417 257.33793457 207.18430176 256.4634668 207.75 255.5625 C208.32419678 254.64162598 208.89839355 253.72075195 209.48999023 252.77197266 C214.80590303 244.26507253 220.19241167 235.8029833 225.58984375 227.34765625 C228.78279886 222.34508956 231.95805012 217.33156164 235.125 212.3125 C235.61234619 211.54019043 236.09969238 210.76788086 236.60180664 209.97216797 C237.57871597 208.42373014 238.55552305 206.87522781 239.53222656 205.32666016 C241.51858477 202.17795861 243.50666714 199.03034757 245.49487305 195.8828125 C246.4990646 194.29304615 247.50313343 192.70320227 248.50708008 191.11328125 C250.96782116 187.21634259 253.42977398 183.32018115 255.89453125 179.42578125 C262.10725185 169.60567449 268.27961179 159.76104379 274.43286133 149.90356445 C278.74287484 143.00214636 283.07550899 136.11559453 287.43041992 129.24243164 C290.25035467 124.78679291 293.04942647 120.31890646 295.83203125 115.83984375 C296.49267578 114.77765625 297.15332031 113.71546875 297.83398438 112.62109375 C299.1124201 110.56398591 300.38862061 108.50548651 301.66210938 106.4453125 C303.42094408 103.61663166 305.20477134 100.80569875 307 98 C307.56895996 97.08879395 308.13791992 96.17758789 308.72412109 95.23876953 C313.64702649 87.70183342 318.31866242 83.68158814 327.1640625 81.63671875 C328.98125659 81.30286825 330.80176789 80.98662402 332.625 80.6875 C333.54023438 80.51927734 334.45546875 80.35105469 335.3984375 80.17773438 C339.98099791 79.36651523 344.32762943 78.79044185 349 79 C342.44758808 90.89063888 335.22286989 102.3439844 327.9921875 113.83007812 C325.42058955 117.92194428 322.86440399 122.02332133 320.30810547 126.12475586 C313.70640262 136.71315657 307.03682955 147.2564875 300.328125 157.77734375 C292.69521198 169.74833969 285.14006788 181.76723573 277.625 193.8125 C272.22240865 202.47177754 266.76909965 211.09673243 261.27661133 219.69921875 C256.91213799 226.54371602 252.6046529 233.42246508 248.3125 240.3125 C243.67523937 247.75478387 238.98462567 255.15499387 234.19580078 262.50048828 C229.63317421 269.52081403 225.21441299 276.62975465 220.78857422 283.73681641 C215.68032475 291.93274211 210.50898931 300.0869781 205.3034668 308.22143555 C204.75215088 309.08422119 204.20083496 309.94700684 203.6328125 310.8359375 C203.14699707 311.59438965 202.66118164 312.3528418 202.16064453 313.13427734 C200.96691922 314.9888933 200.96691922 314.9888933 200 317 C199.34 317 198.68 317 198 317 C196.58642578 315.09838867 196.58642578 315.09838867 194.9453125 312.41796875 C194.3366333 311.43272217 193.7279541 310.44747559 193.10083008 309.43237305 C192.44880615 308.36156494 191.79678223 307.29075684 191.125 306.1875 C189.75692641 303.96849348 188.38843201 301.74974634 187.01953125 299.53125 C186.33842285 298.42265625 185.65731445 297.3140625 184.95556641 296.171875 C182.27415714 291.82270281 179.54846332 287.50248663 176.8125 283.1875 C175.84103241 281.65241553 174.86967776 280.11725956 173.8984375 278.58203125 C173.42245117 277.83002441 172.94646484 277.07801758 172.45605469 276.30322266 C170.96013825 273.93694571 169.4678904 271.56838995 167.9765625 269.19921875 C163.25823947 261.70719475 158.51748712 254.23310037 153.6875 246.8125 C147.90389631 237.92018287 142.30198539 228.91615888 136.69140625 219.9140625 C133.48043067 214.76358813 130.24691731 209.62787111 127 204.5 C122.47399277 197.34947596 117.98111953 190.17873425 113.5 183 C107.51428307 173.41208424 101.49635394 163.84525433 95.45166016 154.29443359 C92.46210152 149.5692617 89.47794384 144.8406762 86.49267578 140.11279297 C84.03195635 136.21605486 81.57012917 132.32002812 79.10546875 128.42578125 C74.75978987 121.5564285 70.42190709 114.68272695 66.12109375 107.78515625 C65.45762939 106.72127686 64.79416504 105.65739746 64.1105957 104.5612793 C62.82266877 102.49454691 61.53597243 100.42704695 60.25073242 98.35864258 C59.65494385 97.4023999 59.05915527 96.44615723 58.4453125 95.4609375 C57.87329102 94.54151367 57.30126953 93.62208984 56.71191406 92.67480469 C54.56942069 89.32723517 52.29170161 86.08320858 49.96435547 82.86181641 C49.64611816 82.24741699 49.32788086 81.63301758 49 81 C49.495 79.515 49.495 79.515 50 78 C54.17193189 78.70088095 58.33605366 79.44075373 62.5 80.1875 C64.25957031 80.48237305 64.25957031 80.48237305 66.0546875 80.78320312 C75.60618177 82.52715573 81.78852086 84.59679945 87.5625 92.6171875 C88.72665052 94.39962836 89.87219031 96.19434578 91 98 C91.56460938 98.88075195 92.12921875 99.76150391 92.7109375 100.66894531 C94.49584478 103.47452072 96.25085824 106.29700117 98 109.125 C99.32284317 111.25264986 100.64576197 113.38025271 101.96875 115.5078125 C102.63777344 116.58579102 103.30679688 117.66376953 103.99609375 118.77441406 C107.1532699 123.85635988 110.32706093 128.92788688 113.5 134 C114.74619649 135.99342536 115.99228993 137.98691514 117.23828125 139.98046875 C117.85654785 140.96966309 118.47481445 141.95885742 119.11181641 142.97802734 C121.02715204 146.04345591 122.94142841 149.10954377 124.85546875 152.17578125 C131.13468972 162.23273844 137.42796213 172.28015142 143.76733398 182.29931641 C148.5416085 189.84746652 153.27488822 197.42100433 158 205 C163.12283896 198.86450683 167.21725668 192.05275449 171.50244141 185.32373047 C172.97940495 183.03195691 174.49055412 180.76652061 176.01171875 178.50390625 C176.94561119 177.0861342 177.87921646 175.66817294 178.8125 174.25 C179.48853271 173.26809692 179.48853271 173.26809692 180.17822266 172.26635742 C182.54744758 168.68537212 182.54744758 168.68537212 182.55859375 164.54296875 C181.78708984 163.28419922 181.78708984 163.28419922 181 162 C180.67427002 161.4332959 180.34854004 160.8665918 180.01293945 160.28271484 C178.79605306 158.18459834 177.52850754 156.12362838 176.25 154.0625 C175.76756836 153.27891113 175.28513672 152.49532227 174.78808594 151.68798828 C170.41642608 144.61422629 165.94953416 137.60143846 161.47338867 130.59350586 C155.21455959 120.79012286 149.0576468 110.9240074 142.90429688 101.05419922 C137.86824661 92.97714936 132.82357403 84.90552737 127.77246094 76.83789062 C126.04233355 74.06778033 124.32116122 71.29228002 122.6015625 68.515625 C121.54703065 66.8228197 120.49235132 65.13010625 119.4375 63.4375 C118.9731958 62.68235107 118.5088916 61.92720215 118.03051758 61.14916992 C115.881906 57.71458492 113.64512051 54.36156693 111.16015625 51.16015625 C110.74515869 50.62140869 110.33016113 50.08266113 109.90258789 49.52758789 C104.91462147 45.52274946 97.96149937 44.40197189 91.7956543 43.29833984 C91.01901932 43.1532045 90.24238434 43.00806915 89.44221497 42.85853577 C86.90408769 42.38588207 84.36421619 41.92342516 81.82421875 41.4609375 C80.04909031 41.132015 78.27409316 40.8023833 76.4992218 40.47207642 C71.84748936 39.60804672 67.19426075 38.75237627 62.54058838 37.89886475 C55.07471386 36.52803148 47.61125194 35.14411737 40.1476841 33.76079178 C37.5428836 33.27919946 34.93748134 32.8009814 32.33195496 32.32333374 C30.74041709 32.0299035 29.14888923 31.73641892 27.55737305 31.44287109 C26.83266815 31.31091843 26.10796326 31.17896576 25.36129761 31.04301453 C17.41859329 29.57244598 17.41859329 29.57244598 15.20654297 26.54736328 C14.55830566 25.48243652 13.91006836 24.41750977 13.2421875 23.3203125 C12.8936673 22.7517453 12.54514709 22.1831781 12.18606567 21.59738159 C11.4508738 20.3943797 10.71984044 19.18882797 9.99267578 17.98095703 C8.88042357 16.13400611 7.75591554 14.29500664 6.62890625 12.45703125 C1.16108509 3.48325526 1.16108509 3.48325526 0 0 Z " fill="#090909" transform="translate(34,76)"/>
</svg>
