<?xml version="1.0" encoding="UTF-8"?>
<svg version="1.1" xmlns="http://www.w3.org/2000/svg" width="467" height="467">
<path d="M0 0 C154.11 0 308.22 0 467 0 C467 154.11 467 308.22 467 467 C312.89 467 158.78 467 0 467 C0 312.89 0 158.78 0 0 Z " fill="#FEFEFE" transform="translate(0,0)"/>
<path d="M0 0 C7.60998757 0.71904594 15.03737587 2.04536105 22.54296875 3.4765625 C23.86237077 3.72544201 25.1818354 3.97398975 26.50135803 4.222229 C30.73087247 5.01894859 34.95920923 5.82181615 39.1875 6.625 C44.98796096 7.72565221 50.78877524 8.82442975 56.58984375 9.921875 C57.30403095 10.05714977 58.01821815 10.19242455 58.75404739 10.33179855 C67.57615041 12.00154414 76.40463509 13.62017904 85.25390625 15.140625 C86.99783026 15.44434071 88.74172805 15.74820698 90.4855957 16.05224609 C93.54765031 16.58542879 96.61226697 17.09558542 99.68041992 17.59228516 C110.45185257 19.41989057 122.10976582 22.81490209 129.33935547 31.63378906 C129.67854004 32.17229492 130.01772461 32.71080078 130.3671875 33.265625 C130.76969727 33.8954126 131.17220703 34.5252002 131.58691406 35.17407227 C132.01198242 35.85912842 132.43705078 36.54418457 132.875 37.25 C133.34131836 37.98597412 133.80763672 38.72194824 134.28808594 39.48022461 C135.86832943 41.98090596 137.43457526 44.49001862 139 47 C140.17415877 48.87129482 141.34864932 50.7423815 142.5234375 52.61328125 C145.71181144 57.69879262 148.88766654 62.79201857 152.06054688 67.88720703 C155.20144302 72.92829789 158.35102745 77.96395176 161.5 83 C165.28674457 89.05760316 169.07261001 95.11575054 172.85546875 101.17578125 C175.9716878 106.1675025 179.09191306 111.15670085 182.21435547 116.14453125 C183.9808163 118.96932287 185.74243268 121.79709663 187.50390625 124.625 C188.5857006 126.35431488 189.6677197 128.0834892 190.75 129.8125 C191.23944092 130.60116455 191.72888184 131.3898291 192.2331543 132.20239258 C192.68730713 132.92579834 193.14145996 133.6492041 193.609375 134.39453125 C194.00092773 135.02206299 194.39248047 135.64959473 194.79589844 136.29614258 C196.04830931 138.06835983 197.42427675 139.51286134 199 141 C199.27368408 140.26692627 199.54736816 139.53385254 199.8293457 138.77856445 C200.93739332 136.14859784 202.18316721 133.93434728 203.73046875 131.54296875 C204.27823975 130.69041504 204.82601074 129.83786133 205.39038086 128.95947266 C205.98343018 128.04472168 206.57647949 127.1299707 207.1875 126.1875 C208.46441901 124.19978208 209.74043006 122.21148066 211.015625 120.22265625 C211.67498047 119.19543457 212.33433594 118.16821289 213.01367188 117.10986328 C216.19005862 112.13680351 219.31544784 107.13228977 222.4375 102.125 C223.05761963 101.13097168 223.67773926 100.13694336 224.31665039 99.11279297 C225.57803205 97.09047708 226.83918074 95.06801585 228.10009766 93.04541016 C230.00564702 89.99094822 231.91436306 86.93848969 233.82421875 83.88671875 C239.30776796 75.12371632 244.7867539 66.35841967 250.21582031 57.56152344 C252.32823961 54.14111998 254.44897898 50.72591499 256.5703125 47.31103516 C257.91082077 45.14415482 259.23757983 42.96940012 260.5625 40.79296875 C267.64288637 29.27856356 274.64006192 22.90235373 287.91394043 19.18365479 C290.99077563 18.50537014 294.071353 17.91159228 297.171875 17.3515625 C298.31698044 17.13321243 299.46208588 16.91486237 300.64189148 16.68989563 C304.34217933 15.98798262 308.04584194 15.30616435 311.75 14.625 C314.31017956 14.14373468 316.87015572 13.66138612 319.42993164 13.17797852 C338.10726881 9.66444635 356.80653161 6.26185272 375.52676392 2.98431396 C380.00807761 2.19414005 384.46315729 1.31528948 388.90649414 0.33422852 C391.2971634 -0.04744218 393.58306545 -0.05523667 396 0 C393.8186558 5.85529093 390.54978228 10.90716659 387.25 16.1875 C386.6415625 17.19748047 386.033125 18.20746094 385.40625 19.24804688 C384.50132812 20.6934082 384.50132812 20.6934082 383.578125 22.16796875 C382.76456543 23.48704224 382.76456543 23.48704224 381.93457031 24.83276367 C378.14310577 29.08021834 372.06291536 29.47186891 366.66870117 30.48046875 C365.96051743 30.61409821 365.25233368 30.74772766 364.52268982 30.88540649 C362.19682763 31.3233281 359.86991572 31.7553832 357.54296875 32.1875 C355.91392975 32.49332491 354.28496872 32.79956539 352.65608215 33.10620117 C348.3743971 33.91127468 344.09183601 34.71158225 339.809021 35.51062012 C332.96568843 36.78811867 326.12365666 38.07255781 319.28173256 39.35757446 C316.90419473 39.80336386 314.52625262 40.24694143 312.14823914 40.69018555 C308.09621677 41.4469266 304.04746588 42.2192431 300 43 C299.03851044 43.18238724 298.07702087 43.36477448 297.08639526 43.5526886 C290.29340103 44.92796027 286.51329256 47.47793176 282.50976562 53.08837891 C281.01692598 55.46052758 279.62380484 57.86957993 278.25 60.3125 C277.20559611 62.11081242 276.1586758 63.90766549 275.109375 65.703125 C274.58923828 66.59708984 274.06910156 67.49105469 273.53320312 68.41210938 C271.29088882 72.19690741 268.91156321 75.88399235 266.5 79.5625 C265.58828029 80.95816262 264.67682356 82.35399707 263.765625 83.75 C263.31123047 84.44609375 262.85683594 85.1421875 262.38867188 85.859375 C254.66788016 97.76090485 247.22072832 109.8424775 239.71240234 121.87841797 C235.46952501 128.67156417 231.18571453 135.437235 226.875 142.1875 C221.84036218 150.07456009 216.87709365 158.00207712 211.96435547 165.96557617 C207.20972991 173.67191809 202.41118696 181.3502813 197.60595703 189.02514648 C194.51466022 193.96585149 191.43203778 198.91151578 188.37109375 203.87109375 C187.79230469 204.80888672 187.21351563 205.74667969 186.6171875 206.71289062 C185.53889315 208.46198436 184.4619516 210.21191321 183.38671875 211.96289062 C182.65195312 213.15495117 182.65195312 213.15495117 181.90234375 214.37109375 C181.43296387 215.1379248 180.96358398 215.90475586 180.47998047 216.69482422 C179.44711626 218.30358434 178.35736737 219.87660684 177.22705078 221.41845703 C176.65841309 222.19946777 176.08977539 222.98047852 175.50390625 223.78515625 C174.97740479 224.47617432 174.45090332 225.16719238 173.90844727 225.87915039 C172.72456159 228.03115552 172.72456159 228.03115552 173.70507812 230.52416992 C174.82620649 232.66771493 175.949756 234.76689752 177.21484375 236.828125 C177.64869385 237.53791504 178.08254395 238.24770508 178.52954102 238.97900391 C178.99416748 239.72843262 179.45879395 240.47786133 179.9375 241.25 C180.41823975 242.02907715 180.89897949 242.8081543 181.39428711 243.61083984 C182.92269437 246.07822154 184.45990514 248.53989857 186 251 C186.5146582 251.82467773 187.02931641 252.64935547 187.55957031 253.49902344 C189.05114988 255.88044972 190.55426895 258.25409214 192.0625 260.625 C192.7594397 261.73536621 192.7594397 261.73536621 193.47045898 262.86816406 C194.59283407 264.61477562 195.78943108 266.31331667 197 268 C197.66 268 198.32 268 199 268 C200.67388857 265.48916715 202.22458334 262.97495125 203.75 260.375 C204.74418002 258.71369701 205.74036509 257.05359269 206.73828125 255.39453125 C207.26760254 254.51361816 207.79692383 253.63270508 208.34228516 252.72509766 C211.13909243 248.12745954 214.03795194 243.59579342 216.9375 239.0625 C218.13155906 237.1927394 219.32556961 235.32294781 220.51953125 233.453125 C221.10299316 232.53982422 221.68645508 231.62652344 222.28759766 230.68554688 C224.91245258 226.56900794 227.52000075 222.44162334 230.125 218.3125 C230.61218506 217.54043213 231.09937012 216.76836426 231.60131836 215.97290039 C232.57839666 214.42422235 233.55536657 212.87547591 234.53222656 211.32666016 C237.01983357 207.38339755 239.51006414 203.44179232 242 199.5 C243.00001224 197.9166744 244.00001225 196.33334107 245 194.75 C251 185.25 251 185.25 252.49926758 182.8762207 C253.50178243 181.28886474 254.50422354 179.70146221 255.5065918 178.11401367 C257.96751963 174.21684605 260.42961712 170.32042899 262.89453125 166.42578125 C269.10583966 156.60790667 275.27725719 146.76579732 281.4284668 136.91015625 C285.7826143 129.93727854 290.15431197 122.97592348 294.57104492 116.04248047 C297.23927941 111.84112423 299.84192032 107.60945839 302.38671875 103.33203125 C303.24402588 101.90540161 303.24402588 101.90540161 304.11865234 100.44995117 C305.21581452 98.62013516 306.30156205 96.78340636 307.37353516 94.9387207 C311.16960729 88.63772843 314.72284025 84.67314215 321.74609375 81.92578125 C330.10572326 80.02090196 338.48482291 78.9185153 347 78 C345.67251074 81.57083088 344.08489016 84.67665564 342.05078125 87.89453125 C341.4575708 88.8378833 340.86436035 89.78123535 340.25317383 90.75317383 C339.61275146 91.76275146 338.9723291 92.7723291 338.3125 93.8125 C336.94778986 95.9790868 335.58321021 98.14575579 334.21875 100.3125 C333.16880859 101.97539062 333.16880859 101.97539062 332.09765625 103.671875 C328.81850814 108.87454574 325.56700628 114.09439515 322.3125 119.3125 C317.4176517 127.14942768 312.49938773 134.97100294 307.55786133 142.77856445 C303.51521167 149.17116855 299.50515951 155.58385483 295.5 162 C287.37337668 175.01533528 279.19315344 187.99533132 270.94360352 200.93310547 C265.42030234 209.59623405 259.93578043 218.28165514 254.5 227 C248.50126672 236.62125423 242.43641931 246.19833365 236.33984375 255.7578125 C231.69432157 263.0431711 227.0858518 270.3518446 222.4765625 277.66015625 C220.96493281 280.05556943 219.45147795 282.44982039 217.9375 284.84375 C217.43025391 285.64619141 216.92300781 286.44863281 216.40039062 287.27539062 C215.39467388 288.86573656 214.3881811 290.45559204 213.38085938 292.04492188 C210.92256982 295.92934497 208.48744009 299.82538616 206.09375 303.75 C205.63500488 304.49805908 205.17625977 305.24611816 204.70361328 306.0168457 C203.83649082 307.43352814 202.97520265 308.85380297 202.12060547 310.27807617 C201.13388541 311.88611828 200.07400638 313.44889517 199 315 C198.34 315 197.68 315 197 315 C195.67822266 313.28198242 195.67822266 313.28198242 194.1640625 310.85546875 C193.31884033 309.51319214 193.31884033 309.51319214 192.45654297 308.14379883 C191.85213379 307.16822021 191.24772461 306.1926416 190.625 305.1875 C189.99867676 304.18936279 189.37235352 303.19122559 188.72705078 302.1628418 C187.43437354 300.10217759 186.14452032 298.03973928 184.85742188 295.97558594 C182.69788879 292.51601848 180.5196225 289.06863915 178.33789062 285.62304688 C175.39920877 280.9815774 172.47143179 276.33321413 169.54101562 271.68652344 C168.06936169 269.35329374 166.59731936 267.02030985 165.125 264.6875 C164.63281982 263.90761719 164.14063965 263.12773437 163.63354492 262.32421875 C160.41385725 257.22676973 157.17892148 252.13924842 153.93701172 247.0559082 C147.77339584 237.3907461 141.67051249 227.6899171 135.60620117 217.9621582 C131.43960692 211.28515183 127.23464103 204.63403191 123 198 C117.43587593 189.28234761 111.93802278 180.5249946 106.46484375 171.75 C102.66211738 165.65456959 98.84269063 159.57030916 95 153.5 C90.47408254 146.34941825 85.98117191 139.17870272 81.5 132 C70.43045843 114.27138267 59.23155811 96.62633238 48 79 C53.01355645 77.41802456 57.55751792 78.66408186 62.625 79.5625 C63.57246094 79.70751953 64.51992187 79.85253906 65.49609375 80.00195312 C73.32172472 81.37759414 80.47255005 83.850837 85.7578125 90.06762695 C87.36702424 92.44536014 88.79036265 94.86697955 90.1875 97.375 C91.29296769 99.25597481 92.3997935 101.13615195 93.5078125 103.015625 C94.07532227 103.99466797 94.64283203 104.97371094 95.22753906 105.98242188 C98.23168662 111.09692102 101.40335363 116.1053287 104.5625 121.125 C105.83489263 123.15869326 107.10703134 125.19254542 108.37890625 127.2265625 C112.0509878 133.08682209 115.74318781 138.93419852 119.44165039 144.77783203 C123.48450653 151.17065306 127.49464319 157.58363204 131.5 164 C136.17533033 171.48685058 140.85582951 178.9703014 145.5625 186.4375 C146.0265625 187.17548828 146.490625 187.91347656 146.96875 188.67382812 C150.22946495 193.83898963 153.59177982 198.93107946 157 204 C159.89207541 201.26957635 162.09579945 198.54974669 164.20703125 195.18359375 C164.79419922 194.25353516 165.38136719 193.32347656 165.98632812 192.36523438 C166.8902832 190.91600586 166.8902832 190.91600586 167.8125 189.4375 C169.00651042 187.54036458 170.20052083 185.64322917 171.39453125 183.74609375 C171.98057129 182.8010498 172.56661133 181.85600586 173.17041016 180.88232422 C174.42215384 178.91033517 175.71597273 176.96460117 177.04443359 175.04345703 C177.6936377 174.09196777 178.3428418 173.14047852 179.01171875 172.16015625 C179.60815186 171.31203369 180.20458496 170.46391113 180.8190918 169.59008789 C182.34180402 166.25032069 181.98251516 164.4937135 181 161 C180.12037204 159.04909145 180.12037204 159.04909145 178.91796875 157.36328125 C178.48709961 156.71415771 178.05623047 156.06503418 177.61230469 155.39624023 C177.14211914 154.70860596 176.67193359 154.02097168 176.1875 153.3125 C175.17468305 151.78979239 174.16300357 150.26632771 173.15234375 148.7421875 C172.62882324 147.95811523 172.10530273 147.17404297 171.56591797 146.36621094 C169.06904185 142.59325751 166.65832831 138.76736307 164.25 134.9375 C163.75975342 134.15995361 163.26950684 133.38240723 162.7644043 132.58129883 C158.01110916 125.03533851 153.28991298 117.46928834 148.56738281 109.90405273 C144.25737187 103.00241922 139.92458794 96.11574752 135.56958008 89.24243164 C132.74964533 84.78679291 129.95057353 80.31890646 127.16796875 75.83984375 C126.50732422 74.77765625 125.84667969 73.71546875 125.16601562 72.62109375 C123.8875799 70.56398591 122.61137939 68.50548651 121.33789062 66.4453125 C118.41428864 61.74337155 115.44635469 57.07185876 112.36328125 52.47265625 C111.57304565 51.28748413 111.57304565 51.28748413 110.7668457 50.07836914 C106.03576937 44.51312763 99.78411498 43.90395058 92.9375 42.6328125 C91.83913818 42.42117462 90.74077637 42.20953674 89.60913086 41.9914856 C86.07499999 41.31504547 82.53815797 40.65503149 79 40 C77.84790039 39.78613647 76.69580078 39.57227295 75.50878906 39.35192871 C66.13606868 37.61779078 56.75855916 35.90952282 47.37695312 34.22412109 C43.8543732 33.59019007 40.33336631 32.94805827 36.8125 32.3046875 C35.75619385 32.11711884 34.6998877 31.92955017 33.61157227 31.73629761 C17.73417977 28.81662439 17.73417977 28.81662439 13.6171875 24.50390625 C13.04226562 23.53324219 12.46734375 22.56257813 11.875 21.5625 C11.23175781 20.50289062 10.58851562 19.44328125 9.92578125 18.3515625 C8.97251953 16.69253906 8.97251953 16.69253906 8 15 C7.33355469 13.89398438 6.66710938 12.78796875 5.98046875 11.6484375 C1.23415899 3.70247696 1.23415899 3.70247696 0 0 Z " fill="#030303" transform="translate(35,77)"/>
</svg>
